<svg width="16.666626" height="13.333252" viewBox="0 0 16.6666 13.3333" fill="none" xmlns="http://www.w3.org/2000/svg" xmlns:xlink="http://www.w3.org/1999/xlink">
	<desc>
			Created with Pixso.
	</desc>
	<defs/>
	<path id="Vector" d="M15 0L1.66663 0C0.75 0 0.00830078 0.75 0.00830078 1.66675L0 11.6667C0 12.5833 0.75 13.3333 1.66663 13.3333L15 13.3333C15.9166 13.3333 16.6666 12.5833 16.6666 11.6667L16.6666 1.66675C16.6666 0.75 15.9166 0 15 0ZM14.6666 3.54175L8.77502 7.2251C8.5083 7.3916 8.15833 7.3916 7.89172 7.2251L2 3.54175C1.91638 3.49487 1.84326 3.4314 1.78491 3.35547C1.72656 3.2793 1.6842 3.19238 1.66052 3.09937C1.63672 3.00659 1.63208 2.90991 1.64685 2.81519C1.6615 2.72046 1.69531 2.62988 1.74609 2.54858C1.79688 2.46729 1.86365 2.39722 1.94226 2.34253C2.021 2.28784 2.10986 2.24951 2.20374 2.23022C2.29761 2.21094 2.39441 2.21069 2.48828 2.22998C2.58215 2.24902 2.67126 2.28711 2.75 2.34155L8.33337 5.83325L13.9166 2.34155C13.9955 2.28711 14.0845 2.24902 14.1783 2.22998C14.2722 2.21069 14.369 2.21094 14.4629 2.23022C14.5568 2.24951 14.6458 2.28784 14.7244 2.34253C14.8031 2.39722 14.8698 2.46729 14.9207 2.54858C14.9714 2.62988 15.0051 2.72046 15.0199 2.81519C15.0345 2.90991 15.0299 3.00659 15.0062 3.09937C14.9824 3.19238 14.9401 3.2793 14.8817 3.35547C14.8234 3.4314 14.7502 3.49487 14.6666 3.54175Z" fill="#BDBDBD" fill-opacity="1.000000" fill-rule="nonzero"/>
</svg>
