<svg width="19.998047" height="19.877930" viewBox="0 0 19.998 19.8779" fill="none" xmlns="http://www.w3.org/2000/svg" xmlns:xlink="http://www.w3.org/1999/xlink">
	<desc>
			Created with Pixso.
	</desc>
	<defs/>
	<path d="M9.99902 0C4.47705 0 0 4.47705 0 9.99902C0 14.989 3.65601 19.125 8.43701 19.8779L8.43701 12.89L5.89697 12.89L5.89697 9.99902L8.43701 9.99902L8.43701 7.79602C8.43701 5.28796 9.92993 3.90503 12.2129 3.90503C13.3069 3.90503 14.4529 4.09998 14.4529 4.09998L14.4529 6.55896L13.189 6.55896C11.949 6.55896 11.561 7.33105 11.561 8.12195L11.561 9.99695L14.332 9.99695L13.8889 12.8879L11.561 12.8879L11.561 19.876C16.342 19.127 19.998 14.99 19.998 9.99902C19.998 4.47705 15.521 0 9.99902 0Z" fill="#BDBDBD" fill-opacity="1.000000" fill-rule="nonzero"/>
</svg>
