<svg width="20.000000" height="20.000000" viewBox="0 0 20 20" fill="none" xmlns="http://www.w3.org/2000/svg" xmlns:xlink="http://www.w3.org/1999/xlink">
	<desc>
			Created with Pixso.
	</desc>
	<defs/>
	<path d="M10 20C8.64575 20 7.35034 19.7363 6.11328 19.209C4.87622 18.6816 3.81177 17.9719 2.91992 17.0801C2.02808 16.1881 1.31836 15.1237 0.791016 13.8867C0.263672 12.6498 0 11.3541 0 10C0 8.64587 0.263672 7.35022 0.791016 6.11328C1.31836 4.87634 2.02808 3.81189 2.91992 2.91992C3.81177 2.02795 4.87622 1.31836 6.11328 0.791016C7.35034 0.263672 8.64575 0 10 0C11.3542 0 12.6497 0.263672 13.8867 0.791016C15.1238 1.31836 16.1882 2.02795 17.0801 2.91992C17.9719 3.81189 18.6816 4.87634 19.209 6.11328C19.7363 7.35022 20 8.64587 20 10C20 11.3541 19.7363 12.6498 19.209 13.8867C18.6816 15.1237 17.9719 16.1881 17.0801 17.0801C16.1882 17.9719 15.1238 18.6816 13.8867 19.209C12.6497 19.7363 11.3542 20 10 20ZM15 6.25C15 5.9115 14.8796 5.61853 14.6387 5.37109C14.3977 5.12366 14.1016 5 13.75 5L6.25 5C5.91138 5 5.61841 5.12366 5.37109 5.37109C5.12378 5.61853 5 5.9115 5 6.25L5 7.5L7.22656 7.5C7.98169 6.66663 8.90625 6.25 10 6.25C11.0938 6.25 12.0183 6.66663 12.7734 7.5L15 7.5L15 6.25ZM7.5 10C7.5 10.6901 7.74414 11.2793 8.23242 11.7676C8.7207 12.2559 9.30981 12.5 10 12.5C10.6902 12.5 11.2793 12.2559 11.7676 11.7676C12.2559 11.2793 12.5 10.6901 12.5 10C12.5 9.30994 12.2559 8.7207 11.7676 8.23242C11.2793 7.74414 10.6902 7.5 10 7.5C9.30981 7.5 8.7207 7.74414 8.23242 8.23242C7.74414 8.7207 7.5 9.30994 7.5 10ZM15 8.75L13.5156 8.75C13.6719 9.17969 13.75 9.59631 13.75 10C13.75 11.0416 13.3855 11.9271 12.6562 12.6562C11.927 13.3854 11.0417 13.75 10 13.75C8.95825 13.75 8.073 13.3854 7.34375 12.6562C6.6145 11.9271 6.25 11.0416 6.25 10C6.25 9.59631 6.32812 9.17969 6.48438 8.75L5 8.75L5 13.75C5 14.1016 5.12036 14.3978 5.36133 14.6387C5.60229 14.8795 5.89844 15 6.25 15L13.75 15C14.1016 15 14.3977 14.8795 14.6387 14.6387C14.8796 14.3978 15 14.1016 15 13.75L15 8.75Z" fill="#BDBDBD" fill-opacity="1.000000" fill-rule="nonzero"/>
</svg>
