<svg width="14.000000" height="19.470215" viewBox="0 0 14 19.4702" fill="none" xmlns="http://www.w3.org/2000/svg" xmlns:xlink="http://www.w3.org/1999/xlink">
	<desc>
			Created with Pixso.
	</desc>
	<defs/>
	<path id="Vector" d="M7 0C3.13 0 0 3.12988 0 7C0 11.1699 4.42004 16.9199 6.23999 19.1101C6.64001 19.5901 7.37 19.5901 7.77002 19.1101C9.57996 16.9199 14 11.1699 14 7C14 3.12988 10.87 0 7 0ZM7 9.5C6.33691 9.5 5.70105 9.23657 5.23218 8.76782C4.76343 8.29883 4.5 7.66309 4.5 7C4.5 6.33691 4.76343 5.70117 5.23218 5.23218C5.70105 4.76343 6.33691 4.5 7 4.5C7.66309 4.5 8.29895 4.76343 8.76782 5.23218C9.23657 5.70117 9.5 6.33691 9.5 7C9.5 7.66309 9.23657 8.29883 8.76782 8.76782C8.29895 9.23657 7.66309 9.5 7 9.5Z" fill="#BDBDBD" fill-opacity="1.000000" fill-rule="nonzero"/>
</svg>
