<svg width="18.208618" height="18.208496" viewBox="0 0 18.2086 18.2085" fill="none" xmlns="http://www.w3.org/2000/svg" xmlns:xlink="http://www.w3.org/1999/xlink">
	<desc>
			Created with Pixso.
	</desc>
	<defs/>
	<path id="Vector" d="M16.2919 8.62402L18.2086 8.62402C18.2086 3.70776 14.4969 0 9.57397 0L9.57397 1.91675C13.4667 1.91675 16.2919 4.73706 16.2919 8.62402Z" fill="#BDBDBD" fill-opacity="1.000000" fill-rule="nonzero"/>
	<path id="Vector" d="M9.58362 5.75C11.599 5.75 12.4586 6.60962 12.4586 8.625L14.3752 8.625C14.3752 5.53442 12.6742 3.8335 9.58362 3.8335L9.58362 5.75ZM12.863 10.9663C12.6788 10.7988 12.4369 10.7097 12.1881 10.7173C11.9395 10.7251 11.7035 10.8291 11.53 11.0076L9.23669 13.366C8.68469 13.2605 7.57495 12.9146 6.43262 11.7751C5.29028 10.6318 4.94434 9.51929 4.8418 8.97095L7.19836 6.67676C7.37695 6.50342 7.4812 6.26733 7.48889 6.01855C7.49658 5.76978 7.4071 5.52783 7.2395 5.34375L3.69849 1.44995C3.53076 1.26538 3.29773 1.15332 3.04883 1.13794C2.79993 1.12231 2.55481 1.20435 2.36548 1.3667L0.285889 3.15015C0.120117 3.31641 0.0212402 3.5376 0.00793457 3.77197C-0.00646973 4.01172 -0.280518 9.68701 4.12012 14.0896C7.95923 17.9275 12.7682 18.2085 14.0925 18.2085C14.2861 18.2085 14.405 18.2026 14.4366 18.2007C14.6709 18.1875 14.8921 18.0884 15.0576 17.9219L16.8401 15.8413C17.0026 15.6521 17.0847 15.407 17.0693 15.158C17.054 14.9092 16.9421 14.676 16.7577 14.5083L12.863 10.9663Z" fill="#BDBDBD" fill-opacity="1.000000" fill-rule="nonzero"/>
</svg>
