<svg width="152.156250" height="174.000000" viewBox="0 0 152.156 174" fill="none" xmlns="http://www.w3.org/2000/svg" xmlns:xlink="http://www.w3.org/1999/xlink">
	<desc>
			Created with Pixso.
	</desc>
	<defs/>
	<path id="Best tour plan" d="" fill="#333333" fill-opacity="1.000000" fill-rule="evenodd"/>
	<path id="Best tour plan" d="M151.719 83.875C152.01 82.5417 152.156 81.0625 152.156 79.4375C152.156 76.8333 151.635 74.5521 150.594 72.5938C149.573 70.6354 148.208 69 146.5 67.6875C144.792 66.375 142.823 65.3958 140.594 64.75C138.385 64.0833 136.094 63.75 133.719 63.75C132.177 63.75 130.667 63.7917 129.188 63.875C127.729 63.9375 126.281 64.0729 124.844 64.2812C123.427 64.4688 122.01 64.7396 120.594 65.0938C119.177 65.4479 117.74 65.8958 116.281 66.4375C116.156 68.8333 116.073 71.2083 116.031 73.5625C115.99 75.9167 115.948 78.2917 115.906 80.6875C115.781 85.4375 115.667 90.1667 115.562 94.875Q115.438 101.938 115.281 109.062L128.719 109.062L129.281 96.0625L133.156 95.9375L137.969 109.25L152.031 106.5L144.594 93.25C145.948 92.3958 147.104 91.5 148.062 90.5625C149.021 89.625 149.802 88.6042 150.406 87.5C151.01 86.3958 151.448 85.1875 151.719 83.875ZM34.125 78.75L34.4375 65.5L0.375 65.5625L0 80.3125L9.3125 79.8125L10.5 108.812L23.6875 108.125L24.8125 79.125L34.125 78.75ZM111.25 87.4688C111.917 80.1979 112.719 72.8958 113.656 65.5625C112.594 65.625 111.531 65.6667 110.469 65.6875L107.344 65.6875C105.99 65.6875 104.646 65.6771 103.312 65.6562Q101.312 65.625 99.2812 65.5625Q99.3438 66.1875 99.375 66.7812C99.3958 67.1771 99.4062 67.5833 99.4062 68C99.4062 68.6458 99.3854 69.5521 99.3438 70.7188C99.3229 71.8854 99.2708 73.2083 99.1875 74.6875C99.125 76.1458 99.0208 77.7083 98.875 79.375C98.7292 81.0417 98.5312 82.6979 98.2812 84.3438C98.0521 85.9688 97.7604 87.5312 97.4062 89.0312C97.0729 90.5312 96.6667 91.8542 96.1875 93C95.7083 94.1458 95.1562 95.0625 94.5312 95.75C93.9062 96.4167 93.1979 96.75 92.4062 96.75C91.7396 96.75 91.2188 96.4583 90.8438 95.875C90.4896 95.2708 90.2188 94.5729 90.0312 93.7812C89.8646 92.9896 89.7604 92.1875 89.7188 91.375C89.6771 90.5625 89.6562 89.9375 89.6562 89.5C89.6562 87.6042 89.7708 85.7292 90 83.875C90.2292 82.0208 90.5312 80.1771 90.9062 78.3438C91.2812 76.4896 91.6979 74.6562 92.1562 72.8438C92.6354 71.0104 93.1146 69.1875 93.5938 67.375C91.0521 67.4167 88.5 67.3854 85.9375 67.2812C83.375 67.1771 80.8229 67.0625 78.2812 66.9375C77.8229 68.75 77.4375 70.6458 77.125 72.625C76.8333 74.6042 76.5938 76.6042 76.4062 78.625C76.2188 80.6458 76.0833 82.6667 76 84.6875Q75.9062 87.6875 75.9062 90.5C75.9062 91.7708 76.0521 93.0833 76.3438 94.4375C76.6562 95.7917 77.0938 97.125 77.6562 98.4375C78.2396 99.7292 78.9479 100.969 79.7812 102.156Q81.0312 103.906 82.5938 105.25C83.6354 106.125 84.7812 106.833 86.0312 107.375C87.2812 107.896 88.6146 108.167 90.0312 108.188C90.6354 108.208 91.2708 108.177 91.9375 108.094C92.6042 107.99 93.25 107.833 93.875 107.625C94.5 107.396 95.0833 107.104 95.625 106.75C96.1875 106.396 96.6771 105.979 97.0938 105.5L96.5312 110.312L109.344 109.375C109.948 102.021 110.583 94.7188 111.25 87.4688ZM73.5625 91.125C74 89.3542 74.2188 87.5208 74.2188 85.625C74.2188 82.5833 73.7292 79.8333 72.75 77.375C71.7917 74.8958 70.4271 72.7917 68.6562 71.0625Q68.4214 70.8277 68.1776 70.6026Q65.6958 68.3117 62.2812 67.0312Q58.5625 65.625 54.0312 65.625C52.1562 65.625 50.375 65.8854 48.6875 66.4062C47 66.9271 45.4271 67.6562 43.9688 68.5938C42.5312 69.5312 41.2292 70.6458 40.0625 71.9375C38.8958 73.2292 37.8958 74.6458 37.0625 76.1875C36.25 77.7292 35.625 79.375 35.1875 81.125C34.75 82.8542 34.5312 84.625 34.5312 86.4375C34.5312 88.2917 34.7604 90.0729 35.2188 91.7812C35.6979 93.4896 36.3542 95.0938 37.1875 96.5938C38.0417 98.0729 39.0625 99.4271 40.25 100.656C41.4583 101.865 42.8021 102.906 44.2812 103.781C45.7604 104.635 47.3438 105.302 49.0312 105.781C50.7396 106.26 52.5312 106.5 54.4062 106.5C56.3438 106.5 58.1771 106.25 59.9062 105.75Q62.5 104.969 64.6875 103.594C66.1667 102.677 67.4896 101.583 68.6562 100.312C69.8438 99.0208 70.8438 97.6042 71.6562 96.0625C72.4896 94.5208 73.125 92.875 73.5625 91.125ZM137.781 78.0312C138.031 78.7604 138.156 79.5625 138.156 80.4375C138.156 81.4792 137.917 82.375 137.438 83.125C136.979 83.875 136.375 84.4896 135.625 84.9688C134.896 85.4479 134.062 85.8021 133.125 86.0312C132.208 86.2604 131.302 86.375 130.406 86.375L129.656 86.375L130.156 74.75C130.531 74.6458 130.917 74.5729 131.312 74.5312Q131.906 74.4375 132.531 74.4375Q133.938 74.4375 134.969 74.9062C135.677 75.1979 136.26 75.6146 136.719 76.1562C137.198 76.6771 137.552 77.3021 137.781 78.0312ZM59.9375 83.8438C60.2083 84.6771 60.3438 85.5417 60.3438 86.4375C60.3438 87.3542 60.1979 88.2396 59.9062 89.0938C59.6146 89.9479 59.1979 90.7083 58.6562 91.375C58.1146 92.0208 57.4479 92.5417 56.6562 92.9375Q55.5 93.5 54.0312 93.5C53.0521 93.5 52.1875 93.2812 51.4375 92.8438C50.7083 92.4062 50.0938 91.8333 49.5938 91.125C49.0938 90.4167 48.7188 89.625 48.4688 88.75Q48.0938 87.4375 48.0938 86.125C48.0938 85.2083 48.2396 84.3438 48.5312 83.5312C48.8229 82.6979 49.2396 81.9792 49.7812 81.375C50.3438 80.75 51.0104 80.2604 51.7812 79.9062C52.5521 79.5521 53.4271 79.375 54.4062 79.375C55.3646 79.375 56.2083 79.5833 56.9375 80Q57.6024 80.3509 58.1364 80.8438Q58.5058 81.1848 58.8125 81.5938Q59.5625 82.5625 59.9375 83.8438Z" fill="#EC1F46" fill-opacity="1.000000" fill-rule="evenodd"/>
	<path id="Best tour plan" d="M36.75 38.9062C37.3958 37.6562 37.7188 36.1667 37.7188 34.4375Q37.7188 32.3438 37.0625 30.5C36.6458 29.2708 36.0417 28.1667 35.25 27.1875C34.4792 26.2083 33.5312 25.375 32.4062 24.6875C31.3021 24 30.0729 23.4792 28.7188 23.125C29.8438 22.8542 30.8542 22.4375 31.75 21.875C32.6458 21.2917 33.4062 20.5938 34.0312 19.7812C34.6562 18.9688 35.1354 18.0521 35.4688 17.0312C35.8021 16.0104 35.9688 14.9167 35.9688 13.75C35.9688 11.9792 35.7083 10.4167 35.1875 9.0625C34.6875 7.70833 33.9792 6.52083 33.0625 5.5C32.1667 4.47917 31.1146 3.625 29.9062 2.9375C28.6979 2.22917 27.3958 1.65625 26 1.21875Q23.9062 0.5625 21.625 0.28125Q19.375 0 17.1562 0C15.8854 0 14.5729 0.0729179 13.2188 0.21875C11.8646 0.34375 10.5 0.541668 9.125 0.8125C7.77083 1.0625 6.4375 1.38542 5.125 1.78125C3.8125 2.15625 2.57292 2.58333 1.40625 3.0625L1.46875 43.3125C2.65625 43.8958 3.91667 44.3854 5.25 44.7812C6.58333 45.1562 7.9375 45.4583 9.3125 45.6875Q11.375 46.0312 13.4375 46.1562C14.8333 46.2604 16.1771 46.3125 17.4688 46.3125C18.7812 46.3125 20.1875 46.2604 21.6875 46.1562C23.2083 46.0521 24.7188 45.8438 26.2188 45.5312C27.7188 45.2188 29.1562 44.7917 30.5312 44.25Q32.625 43.4062 34.2188 42.0938Q34.875 41.5533 35.42 40.9175Q36.1985 40.0092 36.75 38.9062ZM73.2812 25.75Q73.6562 23.0312 73.6562 20.3125C73.6562 18.6042 73.5104 16.9271 73.2188 15.2812C72.9479 13.6146 72.5208 12.0417 71.9375 10.5625C71.375 9.0625 70.6458 7.6875 69.75 6.4375C68.875 5.1875 67.8333 4.11458 66.625 3.21875C65.4375 2.30208 64.0729 1.59375 62.5312 1.09375C61.0104 0.572918 59.3229 0.3125 57.4688 0.3125C55.2396 0.3125 53.1979 0.635418 51.3438 1.28125C49.5104 1.92708 47.8646 2.82292 46.4062 3.96875Q45.9183 4.35215 45.4568 4.76509Q43.8493 6.20334 42.5625 8Q40.9375 10.2812 39.8438 12.9688Q38.7812 15.6562 38.25 18.5625C37.8958 20.5 37.7188 22.4375 37.7188 24.375C37.7188 26.2292 37.8958 28.0625 38.25 29.875C38.6042 31.6875 39.125 33.4062 39.8125 35.0312C40.5 36.6562 41.3646 38.1562 42.4062 39.5312C43.4479 40.9062 44.6562 42.1042 46.0312 43.125C47.4271 44.125 48.9792 44.9062 50.6875 45.4688Q53.25 46.3125 56.3438 46.3125C57.3438 46.3125 58.3646 46.25 59.4062 46.125C60.4479 46 61.4792 45.8021 62.5 45.5312C63.5208 45.2604 64.5 44.9062 65.4375 44.4688C66.3958 44.0312 67.2812 43.5 68.0938 42.875L69.5938 28.6875C68.9479 29.125 68.1771 29.6146 67.2812 30.1562C66.3854 30.6979 65.4479 31.2083 64.4688 31.6875C63.4896 32.1458 62.5 32.5312 61.5 32.8438Q60.0313 33.3125 58.7812 33.3125C57.1771 33.3125 55.7917 32.8646 54.625 31.9688C53.4792 31.0729 52.6354 29.875 52.0938 28.375L62.6562 26.875Q62.9731 26.8281 63.2902 26.7828Q68.2581 26.0731 73.2812 25.75ZM106.25 36.9688C107.25 34.8854 107.75 32.4167 107.75 29.5625Q107.75 27.0625 107 25C106.521 23.6042 105.812 22.4062 104.875 21.4062Q104.817 21.3432 104.758 21.2812Q103.416 19.8681 101.5 19C100.167 18.3958 98.6667 18.0417 97 17.9375C96.6667 17.9167 96.2396 17.9271 95.7188 17.9688Q94.9375 18 94.0312 18.0625C93.4271 18.0833 92.8125 18.0938 92.1875 18.0938Q91.2812 18.0938 90.5 17.9375C90 17.8125 89.5833 17.625 89.25 17.375C88.9375 17.125 88.7708 16.7708 88.75 16.3125C88.7292 15.9167 88.8333 15.5729 89.0625 15.2812C89.2917 14.9896 89.5938 14.7604 89.9688 14.5938C90.3438 14.4062 90.7708 14.2604 91.25 14.1562C91.7292 14.0521 92.1979 13.9792 92.6562 13.9375C93.1354 13.875 93.5833 13.8438 94 13.8438C94.4375 13.8229 94.7917 13.8125 95.0625 13.8125C96.5417 13.8125 98.0521 13.9792 99.5938 14.3125C101.156 14.625 102.646 15.0208 104.062 15.5L105.25 2.8125C104.333 2.375 103.365 2.01042 102.344 1.71875C101.323 1.42708 100.271 1.1875 99.1875 1C98.125 0.8125 97.0521 0.6875 95.9688 0.625C94.8854 0.541668 93.8333 0.5 92.8125 0.5C90.5208 0.5 88.3021 0.864582 86.1562 1.59375C84.0104 2.32292 82.1042 3.375 80.4375 4.75C78.7917 6.10417 77.4688 7.76042 76.4688 9.71875C75.4896 11.6562 75 13.8542 75 16.3125C75 18.1042 75.2917 19.7396 75.875 21.2188Q76.651 23.1588 77.9678 24.6072Q78.1357 24.792 78.3125 24.9688C79.375 25.9896 80.6354 26.7812 82.0938 27.3438C83.5729 27.9062 85.2083 28.1875 87 28.1875L88 28.1875C88.4167 28.1875 88.8646 28.2083 89.3438 28.25C89.8229 28.2917 90.3125 28.3646 90.8125 28.4688C91.3125 28.5521 91.7604 28.6875 92.1562 28.875C92.5521 29.0417 92.875 29.2708 93.125 29.5625C93.375 29.8333 93.5 30.1667 93.5 30.5625C93.5 31.1458 93.3229 31.5938 92.9688 31.9062C92.6146 32.2188 92.1771 32.4583 91.6562 32.625Q90.9062 32.8438 90.0625 32.9062C89.5 32.9271 89.0208 32.9375 88.625 32.9375C86.5417 32.9375 84.4167 32.6667 82.25 32.125C80.1042 31.5625 78.1458 30.75 76.375 29.6875L75 41.9375C75.8958 42.3542 76.9167 42.8021 78.0625 43.2812C79.2292 43.7396 80.4375 44.1771 81.6875 44.5938C82.9375 44.9896 84.1667 45.3229 85.375 45.5938C86.6042 45.8646 87.7292 46 88.75 46Q92.7188 46 96.1562 45.0625C98.4688 44.4167 100.479 43.4271 102.188 42.0938C103.917 40.7396 105.271 39.0312 106.25 36.9688ZM141.812 14.75L142.125 1.5L108.062 1.5625L107.688 16.3125L117 15.8125L118.188 44.8125L131.375 44.125L132.5 15.125L141.812 14.75ZM21.4688 15.0938C21.7188 15.5104 21.8438 16.0208 21.8438 16.625Q21.8438 18.0625 21.1562 18.9062C20.6979 19.4479 20.1354 19.8646 19.4688 20.1562C18.8229 20.4271 18.1458 20.6042 17.4375 20.6875C16.7292 20.7708 16.1354 20.8125 15.6562 20.8125L15.8438 13.875C16.2188 13.7083 16.6042 13.5625 17 13.4375Q17.2728 13.3514 17.5522 13.3048Q17.8809 13.25 18.2188 13.25Q18.7188 13.25 19.3438 13.4375C19.7812 13.5625 20.1771 13.7604 20.5312 14.0312C20.9062 14.3021 21.2188 14.6562 21.4688 15.0938ZM60.9688 16.9062Q61.1562 17.8125 61.1562 18.6875L61.1562 19.375L51.9062 20.25C52.0521 19.5833 52.2708 18.8542 52.5625 18.0625C52.8542 17.2708 53.2292 16.5417 53.6875 15.875C54.1458 15.1875 54.6875 14.625 55.3125 14.1875C55.9583 13.7292 56.6979 13.5 57.5312 13.5C58.2188 13.5 58.7917 13.6667 59.25 14C59.7083 14.3125 60.0729 14.7188 60.3438 15.2188C60.6354 15.7188 60.8438 16.2812 60.9688 16.9062ZM15.6562 27C16.2188 26.875 16.8021 26.8125 17.4062 26.8125C17.8438 26.8125 18.3229 26.8646 18.8438 26.9688C19.3646 27.0521 19.8438 27.2396 20.2812 27.5312C20.7188 27.8021 21.0833 28.1875 21.375 28.6875C21.6875 29.1875 21.8438 29.8333 21.8438 30.625C21.8438 31.4167 21.6875 32.0521 21.375 32.5312C21.0833 33.0104 20.7083 33.3958 20.25 33.6875C19.7917 33.9583 19.3021 34.1458 18.7812 34.25C18.2604 34.3333 17.7812 34.375 17.3438 34.375C17.0521 34.375 16.75 34.3542 16.4375 34.3125C16.1458 34.25 15.8438 34.1875 15.5312 34.125L15.6562 27ZM147.156 164.75C147.219 162.438 147.25 160.104 147.25 157.75L147.25 153.594C147.25 152.073 147.208 150.5 147.125 148.875C147.062 147.25 146.927 145.604 146.719 143.938C146.51 142.25 146.208 140.635 145.812 139.094C145.417 137.552 144.896 136.104 144.25 134.75C143.604 133.375 142.802 132.188 141.844 131.188C140.885 130.188 139.74 129.396 138.406 128.812C137.073 128.229 135.521 127.938 133.75 127.938C132.792 127.938 131.875 128.073 131 128.344C130.146 128.594 129.333 128.948 128.562 129.406C127.792 129.844 127.062 130.375 126.375 131C125.708 131.625 125.083 132.292 124.5 133L124.625 128L109.875 128.75Q109.531 139.781 108.938 150.688C108.562 157.958 108.167 165.271 107.75 172.625L123.688 171.938C123.792 168.229 123.875 164.562 123.938 160.938C124 157.292 124.083 153.625 124.188 149.938C124.188 149.479 124.198 148.896 124.219 148.188C124.26 147.458 124.323 146.688 124.406 145.875C124.51 145.062 124.656 144.25 124.844 143.438C125.031 142.625 125.281 141.896 125.594 141.25C125.927 140.583 126.333 140.042 126.812 139.625C127.312 139.208 127.917 139 128.625 139C129.021 139 129.354 139.219 129.625 139.656C129.917 140.073 130.156 140.615 130.344 141.281C130.552 141.948 130.708 142.688 130.812 143.5Q131 144.688 131.094 145.844C131.156 146.594 131.198 147.271 131.219 147.875C131.24 148.479 131.25 148.917 131.25 149.188C131.25 152.938 131.021 156.656 130.562 160.344C130.104 164.01 129.562 167.688 128.938 171.375L146.938 171.688C147.042 169.354 147.115 167.042 147.156 164.75ZM65.625 170.875L66.9375 157L54.25 157L56.5625 128.312L40.3125 128.312L39.3125 172.938L65.625 170.875ZM92.3125 172.875L107.812 170.875L95.625 128.812L78.25 129.688L65.8125 171.312L81.75 172.875L83.3125 165.812L90.4375 165.812L92.3125 172.875ZM36.8438 150.125C37.4479 148.562 37.75 146.771 37.75 144.75C37.75 142.917 37.4792 141.25 36.9375 139.75C36.4167 138.25 35.6979 136.917 34.7812 135.75Q34.4079 135.275 33.9953 134.836Q32.8886 133.661 31.5 132.75C30.25 131.896 28.8854 131.188 27.4062 130.625Q25.2188 129.781 22.8125 129.406C21.2083 129.135 19.6042 129 18 129C15.1667 129 12.4167 129.198 9.75 129.594Q5.75 130.188 1.75 131.375Q1.5625 135.25 1.59375 139.062C1.61458 141.604 1.60417 144.146 1.5625 146.688C1.54167 149.083 1.52083 151.406 1.5 153.656C1.5 155.906 1.48958 158.146 1.46875 160.375C1.46875 162.583 1.45833 164.812 1.4375 167.062L1.4375 174L16 174L16 160.688Q18.5 160.656 21.0938 160.312Q23.6875 159.938 26.0938 159.188Q28.5312 158.406 30.6562 157.219C32.0729 156.406 33.3021 155.417 34.3438 154.25C35.4062 153.062 36.2396 151.688 36.8438 150.125ZM22.625 142.656C23.4583 143.406 23.875 144.458 23.875 145.812Q23.875 146.848 23.4947 147.717Q23.4389 147.845 23.375 147.969C23.0625 148.594 22.6354 149.146 22.0938 149.625C21.5521 150.083 20.9271 150.438 20.2188 150.688Q19.9154 150.798 19.604 150.876Q18.8566 151.062 18.0625 151.062L17.2188 151.062C16.9479 151.062 16.6667 151.042 16.375 151L16.75 141.875C17.1667 141.771 17.6042 141.688 18.0625 141.625C18.5417 141.542 19 141.5 19.4375 141.5C20.75 141.5 21.8125 141.885 22.625 142.656ZM86.9375 145.375L89.3125 156.25L84.625 156.25L86.9375 145.375Z" fill="#FFFFFF" fill-opacity="1.000000" fill-rule="evenodd"/>
</svg>
