<svg width="20.159912" height="20.159912" viewBox="0 0 20.1599 20.1599" fill="none" xmlns="http://www.w3.org/2000/svg" xmlns:xlink="http://www.w3.org/1999/xlink">
	<desc>
			Created with Pixso.
	</desc>
	<defs/>
	<path d="M11.7632 9.90466L9.40479 8.8042C9.19897 8.70874 9.03003 8.8158 9.03003 9.0437L9.03003 11.1163C9.03003 11.3442 9.19897 11.4513 9.40479 11.3557L11.7622 10.2554C11.969 10.1587 11.969 10.0012 11.7632 9.90466ZM10.0801 0C4.51294 0 0 4.51294 0 10.08C0 15.6471 4.51294 20.1599 10.0801 20.1599C15.6472 20.1599 20.1599 15.6471 20.1599 10.08C20.1599 4.51294 15.6472 0 10.0801 0ZM10.0801 14.175C4.92041 14.175 4.83008 13.7098 4.83008 10.08C4.83008 6.4502 4.92041 5.98499 10.0801 5.98499C15.2397 5.98499 15.3301 6.4502 15.3301 10.08C15.3301 13.7098 15.2397 14.175 10.0801 14.175Z" fill="#BDBDBD" fill-opacity="1.000000" fill-rule="nonzero"/>
</svg>
